<svg xmlns="http://www.w3.org/2000/svg" viewBox="0 0 320 320">
<defs>
<linearGradient id="ca-phe-den-liq" x1="0" y1="132" x2="0" y2="284" gradientUnits="userSpaceOnUse"><stop offset="0" stop-color="#26170C"/><stop offset=".6" stop-color="#33200F"/><stop offset="1" stop-color="#4A2C17"/></linearGradient><clipPath id="ca-phe-den-ch"><path d="M119,30L122,54A38,8 0 0 0 198,54L201,30Z"/></clipPath>
<linearGradient id="ca-phe-den-glass" x1="84" y1="0" x2="236" y2="0" gradientUnits="userSpaceOnUse"><stop offset="0" stop-color="#fff" stop-opacity=".55"/><stop offset=".1" stop-color="#fff" stop-opacity=".22"/><stop offset=".38" stop-color="#fff" stop-opacity=".05"/><stop offset=".66" stop-color="#fff" stop-opacity="0"/><stop offset=".9" stop-color="#2A2218" stop-opacity=".1"/><stop offset="1" stop-color="#2A2218" stop-opacity=".22"/></linearGradient>
<clipPath id="ca-phe-den-cup"><path d="M84,60A76,17 0 0 1 236,60L216,272A56,12 0 0 1 104,272Z"/></clipPath>
<clipPath id="ca-phe-den-bandc"><path d="M97.2,200A62.8,13.7 0 0 0 222.8,200L221.1,218A61.1,13.3 0 0 1 98.9,218Z"/></clipPath>
<g id="ca-phe-den-ice"><rect x="-17" y="-17" width="34" height="34" rx="8" fill="#FFFDF8" opacity=".42"/><rect x="-14" y="-14" width="25" height="25" rx="6" fill="#fff" opacity=".22"/><path d="M13,-4V7Q13,13 7,13H-4" fill="none" stroke="#86694A" stroke-width="2.4" stroke-linecap="round" opacity=".22"/><path d="M-11,1V-7Q-11,-11 -7,-11H3" fill="none" stroke="#fff" stroke-width="3.2" stroke-linecap="round" opacity=".9"/></g>
</defs>
<ellipse cx="160" cy="288" rx="90" ry="12" fill="#2A2218" opacity=".12"/>
<ellipse cx="160" cy="284" rx="60" ry="6" fill="#2A2218" opacity=".1"/>
<path d="M84,60A76,17 0 0 1 236,60L216,272A56,12 0 0 1 104,272Z" fill="#FFFDF8" opacity=".4"/>
<path d="M84,60A76,17 0 0 1 236,60" fill="none" stroke="#FFFDF8" stroke-width="3"/>
<g clip-path="url(#ca-phe-den-cup)">
<use href="#ca-phe-den-ice" transform="translate(124 96) rotate(-12)"/><use href="#ca-phe-den-ice" transform="translate(196 98) rotate(-20)"/><use href="#ca-phe-den-ice" transform="translate(160 90) rotate(10) scale(0.95)"/>
</g>
<path d="M90.8,132A69.2,15.3 0 0 1 229.2,132L216,272A56,12 0 0 1 104,272Z" fill="url(#ca-phe-den-liq)"/>
<ellipse cx="160" cy="132" rx="69.2" ry="15.3" fill="#1F130A"/>
<ellipse cx="146" cy="129" rx="48" ry="9" fill="#33200F"/>
<path d="M90.8,132A69.2,15.3 0 0 0 229.2,132" fill="none" stroke="#D9AE63" stroke-width="1.6" opacity=".45"/>
<path d="M160,70V128" stroke="#2E1B0F" stroke-width="2.4" stroke-linecap="round"/>
<ellipse cx="160" cy="131" rx="9" ry="2.4" fill="none" stroke="#5C3A1E" stroke-width="1.2"/>
<g clip-path="url(#ca-phe-den-cup)">
<use href="#ca-phe-den-ice" transform="translate(130 126) rotate(16)"/><use href="#ca-phe-den-ice" transform="translate(190 124) rotate(-8) scale(0.95)"/>
<g opacity=".7"><use href="#ca-phe-den-ice" transform="translate(118 176) rotate(8) scale(0.9)"/><use href="#ca-phe-den-ice" transform="translate(198 170) rotate(-12) scale(0.9)"/><use href="#ca-phe-den-ice" transform="translate(156 196) rotate(22) scale(0.9)"/><use href="#ca-phe-den-ice" transform="translate(130 242) rotate(-6) scale(0.85)"/><use href="#ca-phe-den-ice" transform="translate(190 244) rotate(10) scale(0.85)"/></g>
</g>
<path d="M84,60A76,17 0 0 0 236,60L216,272A56,12 0 0 1 104,272Z" fill="url(#ca-phe-den-glass)"/>
<path d="M95,80H101L113,256H109Z" fill="#fff" opacity=".55"/>
<path d="M225,96H228.5L214,252H212Z" fill="#fff" opacity=".3"/>
<path d="M103.4,266A56.6,12.1 0 0 0 216.6,266L216,272A56,12 0 0 1 104,272Z" fill="#fff" opacity=".45"/>
<path d="M84,60A76,17 0 0 0 236,60" fill="none" stroke="#FFFDF8" stroke-width="3.2"/>
<path d="M97.2,200A62.8,13.7 0 0 0 222.8,200L221.1,218A61.1,13.3 0 0 1 98.9,218Z" fill="#3A2E20"/>
<g clip-path="url(#ca-phe-den-bandc)"><rect x="190" y="196" width="40" height="40" fill="#2A2218"/><path d="M104,196H110L112,236H106Z" fill="#6B5239"/></g>
<path d="M97.2,200A62.8,13.7 0 0 0 222.8,200M98.9,218A61.1,13.3 0 0 0 221.1,218" fill="none" stroke="#86694A" stroke-width="1.2"/>
<path d="M98.1,209A61.9,13.5 0 0 0 221.9,209" fill="none" stroke="#D9AE63" stroke-width="1.6"/>
<ellipse cx="160" cy="60.5" rx="84" ry="18" fill="#6E6C68"/>
<ellipse cx="160" cy="57" rx="84" ry="18" fill="#B9B7B1"/>
<ellipse cx="160" cy="55.5" rx="64" ry="12.5" fill="#8A8A86"/>
<ellipse cx="172" cy="57.5" rx="48" ry="9.5" fill="#6E6C68" opacity=".5"/>
<path d="M119,30L122,54A38,8 0 0 0 198,54L201,30Z" fill="#8A8A86"/>
<g clip-path="url(#ca-phe-den-ch)"><path d="M126,26H139V70H128Z" fill="#B9B7B1"/><path d="M130,26H133V70H131Z" fill="#fff" opacity=".5"/><path d="M181,26H204V70H183Z" fill="#6E6C68"/></g>
<path d="M116,24V30A44,9.5 0 0 0 204,30V24Z" fill="#8A8A86"/>
<path d="M116,24V30A44,9.5 0 0 0 130,36.9V30.9Z" fill="#B9B7B1"/>
<path d="M186,31.7V37.7A44,9.5 0 0 0 204,30V24Z" fill="#6E6C68"/>
<ellipse cx="160" cy="24" rx="44" ry="9.5" fill="#B9B7B1"/>
<ellipse cx="166" cy="25" rx="31" ry="6" fill="#8A8A86" opacity=".45"/>
<path d="M154,16V23A6,2 0 0 0 166,23V16Z" fill="#6E6C68"/>
<ellipse cx="160" cy="16" rx="6" ry="2" fill="#B9B7B1"/>
<ellipse cx="138" cy="21" rx="11" ry="2.4" fill="#fff" opacity=".55"/>
<ellipse cx="108" cy="52" rx="14" ry="3" fill="#fff" opacity=".45" transform="rotate(-14 108 52)"/>
</svg>