<svg xmlns="http://www.w3.org/2000/svg" viewBox="0 0 320 320">
<ellipse cx="160" cy="288" rx="106" ry="12" fill="#2A2218" opacity=".12"/>
<ellipse cx="160" cy="260" rx="124" ry="25" fill="#DECCAF"/>
<ellipse cx="160" cy="255" rx="124" ry="25" fill="#F6F2EA"/>
<path d="M36,255A124,25 0 0 0 120,279A124,25 0 0 1 36,255Z" fill="#FFFDF8"/>
<ellipse cx="160" cy="253" rx="92" ry="17" fill="#E9DFCF"/>
<ellipse cx="163" cy="255" rx="88" ry="15.4" fill="#F6F2EA"/>
<ellipse cx="160" cy="255" rx="115" ry="22.6" fill="none" stroke="#D9AE63" stroke-width="1.4"/>
<path d="M145.5,217 260.1,236.7 194.5,271 79.9,251.3Z" fill="#DECCAF"/>
<path d="M65.9,253.3 180.5,273 180.5,241 65.9,221.3Z" fill="#8A5A33"/>
<path d="M180.5,273 246.1,238.7 246.1,206.7 180.5,241Z" fill="#6E4526"/>
<path d="M65.9,221.3 180.5,241 180.5,207 65.9,187.3Z" fill="#F7EEDC"/>
<path d="M180.5,241 246.1,206.7 246.1,172.7 180.5,207Z" fill="#E6D6B8"/>
<path d="M65.9,187.3 180.5,207 180.5,175 65.9,155.3Z" fill="#8A5A33"/>
<path d="M180.5,207 246.1,172.7 246.1,140.7 180.5,175Z" fill="#6E4526"/>
<path d="M65.9,155.3 180.5,175 180.5,141 65.9,121.3Z" fill="#F7EEDC"/>
<path d="M180.5,175 246.1,140.7 246.1,106.7 180.5,141Z" fill="#E6D6B8"/>
<path d="M65.9,121.3 180.5,141 180.5,131 65.9,111.3Z" fill="#4A2A1A"/>
<path d="M180.5,141 246.1,106.7 246.1,96.7 180.5,131Z" fill="#3A2214"/>
<g fill="#4A2C17" opacity=".45"><ellipse cx="105.4" cy="251.1" rx="2.8" ry="1.4"/><ellipse cx="77.7" cy="232.9" rx="1.6" ry="1.4"/><ellipse cx="109.7" cy="253.7" rx="2.8" ry="1.4"/><ellipse cx="94.4" cy="250.5" rx="2.2" ry="1.4"/><ellipse cx="79.8" cy="247.9" rx="2.2" ry="1.4"/><ellipse cx="78.8" cy="238.2" rx="1.6" ry="1.4"/><ellipse cx="136.4" cy="247.8" rx="1.6" ry="1.4"/><ellipse cx="131" cy="250.6" rx="1.6" ry="1.4"/><ellipse cx="77.5" cy="232.2" rx="2.2" ry="1.4"/><ellipse cx="115.1" cy="179" rx="2.8" ry="1.4"/><ellipse cx="103.9" cy="171.5" rx="1.6" ry="1.4"/><ellipse cx="83.2" cy="172.9" rx="1.6" ry="1.4"/><ellipse cx="110.3" cy="178" rx="1.6" ry="1.4"/><ellipse cx="129.7" cy="179.9" rx="2.2" ry="1.4"/><ellipse cx="141.4" cy="185.8" rx="2.2" ry="1.4"/><ellipse cx="119.7" cy="172.1" rx="2.2" ry="1.4"/><ellipse cx="103" cy="171.8" rx="2.8" ry="1.4"/><ellipse cx="151.4" cy="194.4" rx="2.2" ry="1.4"/></g>
<path d="M71.1,194.2L171.8,211.5" stroke="#FFFDF8" stroke-width="3" stroke-linecap="round" opacity=".9"/>
<path d="M71.1,128.2L171.8,145.5" stroke="#FFFDF8" stroke-width="3" stroke-linecap="round" opacity=".9"/>
<path d="M65.9,221.3L180.5,241L246.1,206.7" fill="none" stroke="#5C3A1E" stroke-width="2" opacity=".5"/>
<path d="M65.9,155.3L180.5,175L246.1,140.7" fill="none" stroke="#5C3A1E" stroke-width="2" opacity=".5"/>
<path d="M131.5,77 246.1,96.7 180.5,131 65.9,111.3Z" fill="#5C3A1E"/>
<path d="M65.9,111.3L131.5,77Q153.6,101.3 151.8,126.1Z" fill="#6E4526"/>
<g fill="#86694A" opacity=".7"><circle cx="137.8" cy="115.2" r="1.6"/><circle cx="145.1" cy="106.3" r="1"/><circle cx="123.8" cy="95.3" r="1.3"/><circle cx="123.1" cy="97.9" r="1"/><circle cx="223.7" cy="99.4" r="1.6"/><circle cx="142.3" cy="116" r="1.3"/><circle cx="148.9" cy="97" r="1.3"/><circle cx="166.1" cy="104.1" r="1"/><circle cx="200.2" cy="110.6" r="1.6"/><circle cx="101.4" cy="103.5" r="1.3"/><circle cx="143" cy="120.7" r="1.3"/><circle cx="141.6" cy="97.1" r="1.6"/><circle cx="117" cy="114.2" r="1.3"/><circle cx="145.2" cy="87.5" r="1"/><circle cx="140.6" cy="93.2" r="1.6"/><circle cx="137.7" cy="96.7" r="1.3"/><circle cx="118.4" cy="95.6" r="1.6"/><circle cx="154.6" cy="89.8" r="1.3"/><circle cx="203.2" cy="103.6" r="1.3"/><circle cx="192.7" cy="117.3" r="1.3"/><circle cx="219.3" cy="101.5" r="1"/><circle cx="113.7" cy="102.8" r="1"/><circle cx="149.6" cy="106.3" r="1.3"/><circle cx="154.5" cy="90.2" r="1.6"/><circle cx="139.8" cy="103.8" r="1"/><circle cx="173.5" cy="107.6" r="1.6"/></g>
<ellipse cx="150.3" cy="109.1" rx="26" ry="7" fill="#3A2214" opacity=".5"/>
<g transform="translate(130.3 106.1) rotate(-12)"><ellipse rx="11" ry="7.5" fill="#2A2218"/><ellipse cx="-2" cy="-2" rx="8" ry="4.6" fill="#3A2E20"/><path d="M-9,1Q0,-3 9,1" fill="none" stroke="#1E1710" stroke-width="1.6" stroke-linecap="round"/></g>
<g transform="translate(154.3 108.1) rotate(20)"><ellipse rx="11" ry="7.5" fill="#2A2218"/><ellipse cx="-2" cy="-2" rx="8" ry="4.6" fill="#3A2E20"/><path d="M-9,1Q0,-3 9,1" fill="none" stroke="#1E1710" stroke-width="1.6" stroke-linecap="round"/></g>
<g transform="translate(146.3 100.1) rotate(28) scale(.85)"><path d="M0,0C-6,-14 -2,-30 10,-38C16,-26 12,-10 0,0Z" fill="#6F9B4E"/><path d="M0,0C-4,-14 0,-28 10,-38C8,-24 6,-10 0,0Z" fill="#8BA24A"/><path d="M0,0C4,-10 16,-18 30,-16C26,-6 14,0 0,0Z" fill="#5E7A2E"/><path d="M1,-2Q5,-18 9,-32M2,-1Q14,-10 26,-14" fill="none" stroke="#5E7A2E" stroke-width="1.2" opacity=".8"/></g>
<path d="M180.5,273L180.5,141" stroke="#FFFDF8" stroke-width="1.6" opacity=".35"/>
</svg>